PathFileType	4	(X/Y/Z)	C:/Users/beibeiliu/ov580/test_trc/User1\sequence.27_training_dense_left.trc
DataRate	CameraRate	NumFrames	NumMarkers	Units	OrigDataRate	OrigDataStartFrame	OrigNumFrames
120	120	21	19	mm	120	130	259
Frame#	Time	ThumbCMC			ThumbMCP			ThumbIP			ThumbTip			IndexMCP			IndexPIP			IndexTip			MiddleMCP			MiddlePIP			MiddleTip			RingMCP			RingPIP			RingTip			PinkyMCP			PinkyPIP			PinkyTip			BackHand1			BackHand2			BackHand3	
		X0	Y0	Z0	X1	Y1	Z1	X2	Y2	Z2	X3	Y3	Z3	X4	Y4	Z4	X5	Y5	Z5	X6	Y6	Z6	X7	Y7	Z7	X8	Y8	Z8	X9	Y9	Z9	X10	Y10	Z10	X11	Y11	Z11	X12	Y12	Z12	X13	Y13	Z13	X14	Y14	Z14	X15	Y15	Z15	X16	Y16	Z16	X17	Y17	Z17	X18	Y18	Z18	
129	1.075	-193.264	29.7088	66.6051	-181.974	49.9611	44.0544	-177.611	60.4919	15.953	-170.702	71.5908	1.96345	-180.99	-9.00879	-8.4413	-166.05	-14.4039	-37.2466	-150.751	-14.8599	-55.0195	-151.599	-24.7661	-8.28553	-125.648	-1.89307	-20.5443	-112.717	21.3232	6.52421	-140.64	-43.1234	1.63643	-121.528	-38.3918	-20.438	-99.4276	-20.8847	-31.8347	-133.936	-57.2825	36.8856	-127.879	-69.5054	21.0348	-126.082	-88.1165	2.98074	-171.015	-39.279	59.0249	-180.259	-34.0318	91.0564	-196.733	-11.1219	62.6627	
130	1.08333	-194.173	28.9315	64.3833	-185.909	50.9832	40.7246	-179.646	62.0159	16.7018	-173.049	74.8324	-1.59504	-183.034	-8.24275	-9.03396	-169.441	-16.2313	-35.7857	-151.536	-18.4234	-58.2718	-155.362	-22.647	-11.3543	-128.207	-5.68521	-24.5849	-112.129	20.3762	-2.60057	-143.829	-43.9852	4.78738	-123.992	-34.5798	-24.3824	-100.202	-19.4445	-35.1383	-135.546	-56.3838	32.7222	-129.438	-67.916	20.125	-126.211	-87.4359	4.59469	-171.02	-41.5172	55.5291	-177.858	-33.7294	90.0705	-197.424	-11.2581	65.1401	
131	1.09167	-193.334	28.5081	66.631	-185.363	50.5177	42.5714	-181.216	63.0957	19.8035	-171.711	74.3408	-0.756796	-182.874	-9.35731	-11.542	-174.274	-14.7324	-34.1014	-156.379	-20.2104	-56.381	-156.718	-25.8786	-13.5367	-130.769	-10.5117	-29.8668	-106.109	15.7546	-14.7337	-143.449	-42.8616	2.05985	-123.056	-38.9413	-23.2972	-101.178	-25.0496	-33.732	-137.402	-54.6189	31.759	-127.673	-69.37	20.7282	-125.29	-90.9236	5.08984	-170.114	-40.6638	58.3466	-181.246	-33.5786	89.0527	-196.473	-11.9026	65.286	
132	1.1	-194.354	29.581	64.4137	-186.708	54.6632	41.5605	-182.052	64.5445	17.4576	-173.882	77.1857	1.44567	-183.066	-8.65057	-10.5701	-174.556	-15.4117	-36.0548	-163.006	-18.4411	-58.8533	-158.395	-26.1487	-14.9173	-133.278	-16.5221	-34.1413	-103.826	7.78977	-33.6164	-146.47	-39.9812	-1.80972	-123.603	-37.7258	-24.7925	-104.709	-23.4769	-37.7909	-137.699	-54.261	30.6851	-127.884	-69.7423	17.1454	-122.879	-88.3561	1.72837	-171.087	-37.062	53.9799	-181.499	-31.5106	91.4956	-198.424	-10.657	58.7498	
133	1.10833	-195.668	33.5279	62.8342	-186.608	55.3595	44.7301	-180.076	65.2982	19.5616	-174.267	80.6971	-1.95491	-185.873	-5.25498	-10.4541	-176.301	-12.6249	-35.8706	-166.212	-17.7031	-61.8935	-160.109	-25.285	-13.8916	-140.625	-15.7311	-38.166	-109.566	-3.38963	-47.4686	-145.135	-42.7084	2.68573	-127.961	-36.0606	-24.317	-104.104	-21.8176	-39.9646	-135.372	-54.6959	32.4977	-126.878	-68.3495	19.24	-123.321	-82.0237	-0.409686	-173.676	-36.7108	57.6568	-180.915	-32.1233	89.6539	-197.436	-10.7695	62.1972	
134	1.11667	-193.901	33.6053	66.4484	-183.632	53.5347	40.8727	-179.416	65.6168	18.2205	-174.146	80.9477	1.45469	-186.218	-4.98988	-10.0906	-180.938	-8.16825	-40.0811	-168.358	-17.4376	-59.4132	-162.9	-22.4303	-15.0574	-143.863	-19.1109	-37.2745	-115.556	-3.09869	-55.7626	-145.133	-40.2989	0.913448	-127.591	-33.9954	-25.927	-102.258	-21.8117	-40.1848	-134.925	-55.658	29.1372	-127.749	-65.5457	12.1151	-122.127	-78.6101	-6.93118	-170.415	-35.6176	52.8122	-182.116	-31.4949	84.6	-199.09	-9.04976	59.3211	
135	1.125	-195.023	34.624	68.689	-184.854	56.4228	45.4285	-179.299	68.0663	18.4892	-176.131	85.3984	2.91212	-185.417	-3.88705	-14.1544	-178.465	-10.5534	-38.6778	-169.63	-18.3424	-61.3871	-162.786	-21.3353	-14.5845	-146.1	-16.0149	-38.3041	-113.283	-6.65379	-57.5352	-146.035	-34.3251	-3.38295	-123.395	-32.2753	-26.77	-103.749	-17.1455	-40.3149	-136.507	-48.6924	29.9344	-125.5	-64.0437	11.4165	-119.619	-76.4192	-7.50255	-172.582	-33.4443	54.0485	-177.031	-33.4602	85.1476	-197.913	-7.5825	60.3308	
136	1.13333	-192.049	32.6735	64.1101	-184.299	56.9693	41.6861	-180.765	70.4371	22.0758	-176.231	85.8142	1.92768	-185.524	-2.17795	-14.4819	-179.022	-9.68983	-37.0254	-170.775	-17.3271	-58.9306	-162.545	-20.1316	-15.7281	-144.299	-14.0102	-40.7081	-116.78	-1.2704	-58.9606	-143.531	-33.8981	-0.308662	-124.882	-28.2789	-23.2213	-98.7186	-11.4093	-35.9828	-134.179	-51.0744	26.1155	-123.5	-62.3737	13.1512	-115.701	-73.5203	-12.7271	-172.41	-30.7709	55.6801	-177.828	-32.1561	86.2662	-196.14	-8.38493	60.1549	
137	1.14167	-192.879	32.7776	64.8369	-184.918	57.6755	45.0476	-178.709	68.1604	18.6267	-174.056	83.5389	0.585505	-186.751	-1.08451	-9.80603	-181.907	-5.49465	-38.26	-174.046	-13.5123	-61.4057	-163.098	-18.5824	-11.8599	-142.498	-12.2981	-40.7152	-113.006	-1.23235	-54.2203	-141.949	-33.8114	1.47124	-119.288	-25.4345	-20.9168	-97.1539	-1.67579	-29.9066	-134.301	-48.3175	26.653	-121.874	-59.8957	10.4465	-116.349	-68.8559	-9.89458	-172.516	-31.8837	55.3197	-177.312	-29.3153	87.7492	-198.533	-5.95376	59.689	
138	1.15	-192.562	35.0095	68.3243	-183.171	56.7723	45.3483	-180	70.9824	16.4639	-173.908	84.8267	0.823333	-186.062	-1.62007	-11.5292	-179.12	-9.42177	-37.3708	-172.363	-15.5561	-62.4853	-158.543	-19.7682	-14.4748	-137.328	-8.99382	-38.1667	-109.555	6.75141	-47.4885	-142.254	-31.4569	1.84191	-118.058	-19.1572	-19.9106	-94.7358	0.865778	-18.8501	-134.426	-46.3974	24.7077	-120.617	-58.5833	10.5218	-114.709	-66.02	-9.41374	-170.933	-34.524	52.6501	-178.612	-27.3767	89.9511	-197.918	-4.69422	58.556	
139	1.15833	-193.701	38.05	65.1848	-183.568	58.4727	42.0223	-177.365	68.0298	16.9603	-171.328	79.9778	1.32273	-186.486	-0.0339924	-12.1078	-179.773	-7.60321	-38.1232	-170.046	-16.9585	-57.2451	-154.545	-19.9198	-14.3011	-135.338	-8.44578	-33.4086	-107.425	14.7267	-37.3728	-138.269	-29.7654	1.05605	-111.767	-14.7539	-16.4593	-96.0078	11.4287	-10.2776	-133.745	-44.6179	30.9685	-120.839	-55.8982	14.4072	-109.484	-65.8415	-9.09386	-171.194	-30.1897	57.7107	-178.022	-29.2466	85.9004	-195.524	-5.35693	62.9594	
140	1.16667	-192.201	36.6385	65.2604	-182.664	59.2775	44.1916	-176.908	69.7483	17.9277	-169.49	82.827	-2.89833	-182.838	-2.54234	-10.8856	-177.18	-10.6138	-37.4394	-168.195	-19.0977	-57.7899	-155.879	-16.1446	-10.9928	-129.069	-4.77634	-30.3697	-103.567	24.2378	-23.1106	-139.005	-28.4616	0.824404	-111.163	-9.2908	-14.7818	-98.9492	16.0832	-1.38952	-131.672	-45.5893	29.0872	-120.353	-55.6007	14.0474	-114.189	-63.9177	-7.38049	-170.184	-29.8053	56.4504	-178.279	-25.4974	90.7887	-198.394	-3.33426	59.2484	
141	1.175	-192.695	38.8768	65.9882	-181.216	57.7123	43.039	-178.931	72.2433	18.9946	-169.464	81.4197	1.40538	-184.162	1.18456	-9.91226	-177.663	-7.08601	-33.951	-169.282	-15.62	-61.5256	-153.226	-16.1205	-10.698	-125.624	5.38469	-29.0599	-105.785	30.0317	-13.0933	-133.662	-28.8535	-0.00850393	-109.493	-9.74174	-10.1367	-99.1873	14.3513	6.44461	-129.531	-48.3792	27.2337	-121.455	-55.2489	15.9654	-114.474	-69.7568	-8.07538	-168.738	-30.5118	52.1515	-177.289	-28.3039	86.0756	-193.854	-3.83551	61.0715	
142	1.18333	-192.853	40.5091	67.7101	-181.857	58.4926	42.6905	-177.453	71.0794	17.5903	-168.522	80.8915	-1.58934	-183.916	-0.401391	-9.84676	-175.25	-10.1016	-34.9331	-166.197	-17.212	-57.4335	-151.035	-11.2338	-13.2831	-122.59	5.05424	-24.219	-106.026	32.1757	0.899728	-136.161	-25.8957	0.745244	-108.217	-6.96984	-7.69726	-105.548	22.2735	13.4475	-128.636	-48.6004	27.3994	-122.466	-54.5149	13.0001	-115.479	-71.2048	-3.10262	-169.64	-29.6689	53.5166	-175.905	-29.7623	86.0165	-193.713	-4.90061	62.0438	
143	1.19167	-192.466	38.7733	65.2253	-180.568	57.0385	41.3883	-177.062	70.2597	17.5147	-168.476	80.7827	-2.71515	-181.838	0.0357007	-11.3106	-175.112	-8.87232	-34.7451	-165.426	-16.4377	-59.0655	-146.39	-12.5227	-13.4361	-119.159	8.75425	-20.4986	-109.67	36.0556	5.11696	-133.794	-25.7689	1.58748	-105.355	-1.6384	-3.94752	-104.656	19.4545	16.6923	-129.904	-45.9345	30.1689	-121.805	-54.5701	12.4226	-113.813	-72.2822	-6.25977	-171.246	-30.0054	50.7769	-175.068	-29.0774	86.4929	-191.737	-4.29847	61.0711	
144	1.2	-190.981	38.8046	65.4293	-183.123	59.7218	39.2708	-177.172	70.6559	15.2325	-170.125	84.371	-5.51566	-181.233	-0.486279	-11.4075	-174.398	-6.50046	-37.575	-164.872	-16.2058	-62.8425	-147.158	-11.605	-12.184	-120.316	8.70156	-20.6587	-111.805	38.0912	7.30864	-129.737	-21.2378	-1.77004	-107.321	-1.32988	-4.03389	-107.414	21.8297	25.4968	-130.71	-43.0823	26.4162	-118.168	-55.2447	10.9252	-114.376	-68.7474	-3.59709	-170.225	-29.1275	51.1677	-176.302	-28.069	86.0953	-192.827	-2.72014	57.0982	
145	1.20833	-192.262	39.399	60.9557	-182.151	59.0947	39.3781	-175.932	70.7275	13.3743	-168.593	83.5732	-4.63029	-178.674	-1.87887	-15.2476	-172.392	-8.66992	-35.7725	-163.179	-16.5577	-58.2524	-145.403	-11.1076	-10.8433	-118.455	9.4075	-18.8106	-111.077	40.0353	9.58	-132.153	-20.9529	1.41994	-105.143	2.17067	-0.272008	-110.771	22.8882	27.3598	-125.791	-47.6011	24.3588	-116.077	-54.1201	12.9064	-110.23	-68.4241	-4.65454	-166.431	-30.4996	52.6935	-175.179	-29.5266	86.0862	-192.92	-2.07721	59.2913	
146	1.21667	-188.873	35.6274	63.5595	-179.331	56.9401	40.0114	-177.691	73.9077	18.2595	-167.231	82.1639	-1.89704	-177.222	-3.23407	-12.9992	-172.556	-6.73655	-34.9446	-161.312	-19.4524	-62.1495	-147.212	-8.9891	-12.4559	-118.11	11.171	-18.7542	-109.711	38.0226	7.44934	-128.262	-19.9147	-0.806096	-103.912	6.48106	1.19192	-108.173	22.0769	25.9725	-125.21	-44.885	25.3293	-117.774	-51.9377	10.8253	-111.683	-66.6956	-8.57082	-166.346	-29.5583	53.0016	-174.814	-29.1477	84.5512	-193.017	-6.08932	59.8656	
147	1.225	-189.258	37.4156	62.3482	-181.228	60.8501	41.3157	-174.37	69.4539	16.8426	-168.842	86.0903	-2.60752	-180.003	-0.0290724	-12.4109	-171.632	-7.65441	-35.0595	-161.947	-17.3649	-57.4677	-144.089	-10.1742	-11.5058	-119.574	10.2726	-20.7218	-107.544	36.9535	3.54094	-128.541	-22.2438	2.32964	-106.127	5.12075	-1.09217	-108.378	23.2503	28.3656	-125.232	-46.5136	26.3117	-116.012	-52.8531	8.38663	-109.399	-67.4423	-8.65023	-164.983	-31.7226	51.0821	-176.024	-25.5287	88.2296	-193.614	-0.53234	60.0052	
148	1.23333	-190.981	39.8547	65.6025	-180.514	60.1897	40.2527	-175.379	71.3712	18.1296	-168.534	88.2493	-1.04719	-179.145	0.189349	-9.95646	-171.069	-8.20594	-33.5834	-161.267	-19.0263	-58.1605	-149.459	-9.00245	-12.7968	-121.031	9.68637	-23.9152	-103.263	34.5085	0.247929	-128.818	-23.2127	0.967913	-106.404	1.25774	-4.72127	-107.603	25.1677	20.9675	-127.218	-44.3966	25.5314	-117.396	-52.7472	8.29278	-108.967	-67.7231	-8.82696	-166.265	-30.1257	50.7743	-178.631	-24.0019	88.4073	-193.405	-1.74244	59.3502	
149	1.24167	-189.59	37.8712	66.1053	-182.07	62.8571	44.764	-177.372	74.5287	16.6155	-168.667	86.284	-3.68527	-179.251	0.184082	-13.9957	-172.433	-7.45074	-32.7959	-164.303	-14.6722	-61.7929	-152.859	-10.3073	-11.9083	-123.608	2.52987	-28.2149	-100.994	34.3851	-10.9051	-134.925	-23.2902	-1.45672	-106.813	-3.98206	-9.8845	-97.9814	17.9415	9.72671	-128.657	-43.0441	27.0515	-117.079	-52.7757	13.8107	-106.986	-66.4635	-6.81155	-167.317	-31.3592	52.0519	-175.307	-27.1778	87.6712	-195.657	0.141547	59.8451	
